<?xml version="1.0" encoding="UTF-8" standalone="no"?>
<svg
   xmlns:dc="http://purl.org/dc/elements/1.1/"
   xmlns:cc="http://creativecommons.org/ns#"
   xmlns:rdf="http://www.w3.org/1999/02/22-rdf-syntax-ns#"
   xmlns:svg="http://www.w3.org/2000/svg"
   xmlns="http://www.w3.org/2000/svg"
   xmlns:sodipodi="http://sodipodi.sourceforge.net/DTD/sodipodi-0.dtd"
   xmlns:inkscape="http://www.inkscape.org/namespaces/inkscape"
   enable-background="new 0 0 48 48"
   height="48px"
   version="1.1"
   viewBox="0 0 48 48"
   width="48px"
   xml:space="preserve"
   id="svg3753"
   sodipodi:docname="chefHat.svg"
   inkscape:version="0.92.2 (5c3e80d, 2017-08-06)"><metadata
     id="metadata3759"><rdf:RDF><cc:Work
         rdf:about=""><dc:format>image/svg+xml</dc:format><dc:type
           rdf:resource="http://purl.org/dc/dcmitype/StillImage" /></cc:Work></rdf:RDF></metadata><defs
     id="defs3757" /><sodipodi:namedview
     pagecolor="#ffffff"
     bordercolor="#666666"
     borderopacity="1"
     objecttolerance="10"
     gridtolerance="10"
     guidetolerance="10"
     inkscape:pageopacity="0"
     inkscape:pageshadow="2"
     inkscape:window-width="1920"
     inkscape:window-height="1017"
     id="namedview3755"
     showgrid="false"
     inkscape:zoom="8.0000004"
     inkscape:cx="17.436606"
     inkscape:cy="32.954634"
     inkscape:window-x="-8"
     inkscape:window-y="-8"
     inkscape:window-maximized="1"
     inkscape:current-layer="svg3753" /><g
     id="Expanded"><g
       id="g3750"><g
         id="g3732"><path
           d="M36,48H12c-0.522,0-0.957-0.402-0.997-0.923L9.07,21.946C5.095,21.484,2,18.097,2,14c0-4.419,3.678-8.151,8.032-8.151     c0.91,0,1.803,0.177,2.636,0.52C14.072,2.509,18.439,0,24,0c5.224,0,8.878,2.112,11.14,6.45c0.887-0.396,1.848-0.602,2.828-0.602     C42.322,5.849,46,9.581,46,14c0,4.097-3.095,7.484-7.07,7.946l-1.933,25.131C36.957,47.598,36.522,48,36,48z M12.926,46h22.147     l1.929-25.077C37.043,20.402,37.478,20,38,20c3.309,0,6-2.691,6-6c0-3.625-3.179-6.151-6.032-6.151     c-0.982,0-1.899,0.274-2.724,0.817c-0.245,0.161-0.551,0.207-0.832,0.123c-0.282-0.083-0.513-0.285-0.632-0.555     C31.898,3.981,28.791,2,24,2c-5.157,0-9.059,2.415-9.71,6.009c-0.06,0.33-0.281,0.608-0.59,0.74     c-0.308,0.134-0.663,0.102-0.943-0.083c-0.825-0.543-1.742-0.817-2.724-0.817C7.179,7.849,4,10.375,4,14c0,3.309,2.691,6,6,6     c0.522,0,0.957,0.402,0.997,0.923L12.926,46z"
           id="path3730"
           style="fill:#7f2aff" /></g><g
         id="g3736"><path
           d="M36.625,40h-25.25c-0.552,0-1-0.447-1-1s0.448-1,1-1h25.25c0.552,0,1,0.447,1,1S37.177,40,36.625,40z"
           id="path3734" /></g><g
         id="g3740"><path
           d="M19,40c-0.552,0-1-0.447-1-1v-8c0-0.553,0.448-1,1-1s1,0.447,1,1v8C20,39.553,19.552,40,19,40z"
           id="path3738" /></g><g
         id="g3744"><path
           d="M24,40c-0.552,0-1-0.447-1-1V29c0-0.553,0.448-1,1-1s1,0.447,1,1v10C25,39.553,24.552,40,24,40z"
           id="path3742" /></g><g
         id="g3748"><path
           d="M29,40c-0.552,0-1-0.447-1-1v-8c0-0.553,0.448-1,1-1s1,0.447,1,1v8C30,39.553,29.552,40,29,40z"
           id="path3746" /></g></g></g><path
     style="fill:#88c069;stroke-width:0.05660377;fill-opacity:1"
     d="M 11.660377,47.913921 C 11.480672,47.842473 11.220456,47.596877 11.11925,47.403195 11.063433,47.296375 10.763127,43.635982 10.069733,34.610742 9.5355034,27.657192 9.0896009,21.957911 9.0788389,21.945674 9.0680768,21.933435 8.8506011,21.887386 8.5955592,21.843341 5.4621938,21.302223 2.9311536,18.853915 2.1997622,15.656604 2.0557654,15.027115 2.0005696,13.702376 2.0900957,13.024528 2.4418022,10.361578 4.0796667,8.0189292 6.4600748,6.7741177 7.6240896,6.1654075 8.6973889,5.9027208 10.018868,5.9031147 c 0.934304,2.83e-4 1.414352,0.07318 2.194588,0.3332728 0.226363,0.075458 0.421502,0.1371974 0.433643,0.1371974 0.01214,0 0.161579,-0.2901153 0.332083,-0.6447011 0.692888,-1.4409465 1.694657,-2.5785578 3.09629,-3.5161499 1.602052,-1.0716593 3.335261,-1.69469164 5.692779,-2.04636998 0.954907,-0.14244636 3.500939,-0.14295289 4.467598,-8.8882e-4 2.220983,0.32640451 3.972521,1.0241356 5.54717,2.2097341 0.649905,0.4893321 1.578962,1.4378687 2.109215,2.153438 0.388502,0.5242785 1.152644,1.7248545 1.212911,1.9056554 0.01035,0.031041 0.169831,-0.00584 0.360788,-0.083432 0.828958,-0.3368366 1.97709,-0.5219859 2.87878,-0.4642364 1.995066,0.1277756 3.766076,0.9388856 5.217818,2.3897218 3.632984,3.630722 3.061374,9.553609 -1.194159,12.373579 -0.893725,0.592235 -1.963254,1.02306 -2.976105,1.198826 -0.250807,0.04352 -0.464201,0.08814 -0.47421,0.09915 -0.01001,0.01101 -0.4534,5.692841 -0.985313,12.626297 -0.676266,8.815069 -0.99106,12.662272 -1.046732,12.792452 -0.09574,0.223874 -0.346,0.468042 -0.564225,0.550494 -0.214612,0.08109 -24.457324,0.07791 -24.66141,-0.0032 z m 23.459816,-2.214864 c 0.04732,-0.48016 0.426977,-5.452039 0.426977,-5.591563 0,-0.110257 -0.104837,-0.111268 -11.54717,-0.111268 -11.442333,0 -11.54717,10e-4 -11.54717,0.111268 0,0.139524 0.379657,5.111403 0.426977,5.591563 l 0.03486,0.353773 H 24 35.085329 Z M 18.012177,34.378302 c 0.0148,-3.337634 0.02427,-3.651684 0.115122,-3.817829 0.209761,-0.38359 0.647077,-0.584977 1.089896,-0.501903 0.27003,0.05066 0.632719,0.382603 0.705896,0.64606 0.03599,0.129568 0.05753,1.532009 0.05773,3.758578 l 3.16e-4,3.551886 h 1.527343 1.527343 l 0.01511,-4.688389 0.01511,-4.688389 0.158586,-0.207897 C 23.432984,28.157273 23.647455,28.05283 24,28.05283 c 0.352545,0 0.567016,0.104443 0.775376,0.377589 l 0.158586,0.207897 0.01511,4.688389 0.01511,4.688389 h 1.527343 1.527343 l 3.4e-4,-3.551886 c 1.69e-4,-2.226569 0.02174,-3.62901 0.05773,-3.758578 0.07318,-0.263457 0.435866,-0.595402 0.705896,-0.64606 0.442818,-0.08307 0.880135,0.118313 1.089896,0.501903 0.09085,0.166145 0.100323,0.480195 0.115122,3.817829 l 0.01613,3.636792 h 2.849922 2.849923 l 0.03517,-0.353773 c 0.01934,-0.194576 0.315288,-4.034434 0.657657,-8.533019 0.342369,-4.498585 0.648586,-8.273616 0.680481,-8.388958 0.139079,-0.502944 0.493701,-0.698036 1.356863,-0.746467 1.460549,-0.08195 2.927138,-0.776465 3.951086,-1.871068 1.418351,-1.516222 1.966547,-3.677262 1.436626,-5.663318 C 43.290303,10.466911 41.685451,8.7846725 39.676296,8.1131989 39.032518,7.898044 38.471989,7.8261923 37.684606,7.8578938 37.102147,7.8813447 36.904154,7.9147862 36.452854,8.065937 36.157099,8.1649919 35.711345,8.3657423 35.462288,8.5120477 35.071892,8.7413819 34.966534,8.7781398 34.698137,8.7786515 34.166186,8.7796647 34.036859,8.657147 33.545013,7.6862264 32.19736,5.0259618 30.507761,3.4390812 28.148608,2.6179138 26.876114,2.1749875 25.677753,1.9950754 24,1.9950754 c -1.686438,0 -2.995435,0.1927948 -4.367077,0.6432014 C 16.816956,3.5629576 14.929659,5.3527726 14.346502,7.6516443 14.18517,8.2876342 14.097927,8.4527938 13.824246,8.6403232 13.668221,8.747233 13.548808,8.7791083 13.306034,8.7786515 13.032691,8.7781421 12.930098,8.7425372 12.537736,8.5120477 12.288679,8.3657423 11.842925,8.1649919 11.54717,8.065937 10.607882,7.7513468 9.3513187,7.7697708 8.3237275,8.1131989 6.3145734,8.7846725 4.7097204,10.466911 4.1783258,12.458491 c -0.5308149,1.989407 0.016219,4.140392 1.4421631,5.67071 1.0096019,1.083501 2.4881771,1.781905 3.9455488,1.863676 0.8631623,0.04843 1.2177843,0.243523 1.3568633,0.746467 0.0319,0.115342 0.338112,3.890373 0.680481,8.388958 0.342369,4.498585 0.638314,8.338443 0.657657,8.533019 l 0.03517,0.353773 h 2.849922 2.849922 z"
     id="path3761"
     inkscape:connector-curvature="0" /></svg>